<svg width="150" height="150" viewBox="0 0 150 150" fill="none" xmlns="http://www.w3.org/2000/svg">
<path d="M17.9673 130V97L45.9164 113.5L17.9673 130Z" fill="white"/>
<path d="M104.809 112V79L132.758 95.5L104.809 112Z" fill="white"/>
<path d="M17.9673 94V61L45.9164 77.5L17.9673 94Z" fill="white"/>
<path d="M75.8618 94V61L103.811 77.5L75.8618 94Z" fill="white"/>
<path d="M104.809 76V43L132.758 59.5L104.809 76Z" fill="white"/>
<path d="M17.9673 58V25L45.9164 41.5L17.9673 58Z" fill="white"/>
<path d="M46.9145 76V43L74.8636 59.5L46.9145 76Z" fill="white"/>
<path d="M45.9164 112V79L17.9673 95.5L45.9164 112Z" fill="white"/>
<path d="M132.758 130V97L104.809 113.5L132.758 130Z" fill="white"/>
<path d="M74.8636 94V61L46.9145 77.5L74.8636 94Z" fill="white"/>
<path d="M103.811 76V43L75.8618 59.5L103.811 76Z" fill="white"/>
<path d="M132.758 58V25L104.809 41.5L132.758 58Z" fill="white"/>
<path d="M132.758 94V61L104.809 77.5L132.758 94Z" fill="white"/>
<path d="M45.9164 76V43L17.9673 59.5L45.9164 76Z" fill="white"/>
<path fill-rule="evenodd" clip-rule="evenodd" d="M149.727 0H0V150H149.727V0ZM144.736 5H4.99091V145H144.736V5Z" fill="white"/>
</svg>
