<svg width="200" height="61" viewBox="0 0 200 61" fill="none" xmlns="http://www.w3.org/2000/svg">
<path d="M93.0534 12.5156V28.3003H89.9529V18.0628L85.4946 25.3915H85.1325L80.6741 18.0854V28.3003H77.551V12.5156H80.7647L85.3135 19.9796L89.8398 12.5156H93.0534Z" fill="url(#paint0_linear)"/>
<path d="M106.189 28.3003L105.239 25.4591H98.9246L97.9741 28.3003H94.602L100.147 12.5156H104.017L109.584 28.3003H106.189ZM99.9204 22.5502H104.266L102.093 16.101L99.9204 22.5502Z" fill="url(#paint1_linear)"/>
<path d="M119.812 28.3003L116.621 22.8208H114.245V28.3003H111.122V12.5156H117.459C118.922 12.5156 120.167 13.0268 121.193 14.049C122.219 15.0713 122.732 16.304 122.732 17.7471C122.732 18.7243 122.453 19.6338 121.895 20.4756C121.336 21.3025 120.597 21.9263 119.677 22.3473L123.184 28.3003H119.812ZM114.245 15.4245V20.0923H117.459C118.047 20.0923 118.553 19.8668 118.975 19.4158C119.398 18.9498 119.609 18.3936 119.609 17.7471C119.609 17.1007 119.398 16.552 118.975 16.101C118.553 15.65 118.047 15.4245 117.459 15.4245H114.245Z" fill="url(#paint2_linear)"/>
<path d="M137.403 28.3003H133.804L128.147 20.9041V28.3003H125.023V12.5156H128.147V19.4835L133.578 12.5156H137.176L131.315 20.1825L137.403 28.3003Z" fill="url(#paint3_linear)"/>
<path d="M142.07 25.3238H148.746V28.3003H138.947V12.5156H148.633V15.4922H142.07V18.8521H148.067V21.7835H142.07V25.3238Z" fill="url(#paint4_linear)"/>
<path d="M161.426 12.5156V15.4922H157.149V28.3003H154.025V15.4922H149.771V12.5156H161.426Z" fill="url(#paint5_linear)"/>
<path d="M163.169 12.5156H166.292V28.3003H163.169V12.5156Z" fill="url(#paint6_linear)"/>
<path d="M178.391 12.5156H181.514V28.3003H179.137L172.348 18.6491V28.3003H169.225V12.5156H171.601L178.391 22.1443V12.5156Z" fill="url(#paint7_linear)"/>
<path d="M200 19.8217V21.0394C200 23.2943 199.276 25.1209 197.827 26.5189C196.379 27.917 194.508 28.616 192.215 28.616C189.771 28.616 187.741 27.8268 186.127 26.2483C184.528 24.6548 183.728 22.7156 183.728 20.4305C183.728 18.1305 184.52 16.1837 186.104 14.5902C187.704 12.9967 189.68 12.2 192.034 12.2C193.512 12.2 194.863 12.5382 196.085 13.2147C197.307 13.8761 198.257 14.7631 198.936 15.8755L196.266 17.4089C195.889 16.7625 195.315 16.2363 194.546 15.8304C193.792 15.4245 192.947 15.2216 192.011 15.2216C190.502 15.2216 189.258 15.7177 188.277 16.7099C187.311 17.687 186.829 18.9272 186.829 20.4305C186.829 21.9188 187.319 23.1515 188.3 24.1287C189.295 25.0908 190.608 25.5718 192.238 25.5718C193.445 25.5718 194.44 25.3088 195.225 24.7826C196.024 24.2414 196.568 23.5048 196.854 22.5728H192.056V19.8217H200Z" fill="url(#paint8_linear)"/>
<path d="M87.0109 35.9918H80.6741V39.735H86.8298V42.7116H80.6741V48.8H77.551V33.0153H87.0109V35.9918Z" fill="url(#paint9_linear)"/>
<path d="M89.2865 33.0153H92.4096V48.8H89.2865V33.0153Z" fill="url(#paint10_linear)"/>
<path d="M107.405 48.8H103.851L100.774 43.6587L97.6958 48.8H94.1653L99.0084 40.7047L94.4143 33.0153H97.9447L100.774 37.7507L103.603 33.0153H107.133L102.539 40.6821L107.405 48.8Z" fill="url(#paint11_linear)"/>
<path d="M7.34694 52.8667V39.4467L18.7755 46.1567L7.34694 52.8667Z" fill="url(#paint12_linear)"/>
<path d="M42.8571 45.5467V32.1267L54.2857 38.8367L42.8571 45.5467Z" fill="url(#paint13_linear)"/>
<path d="M7.34694 38.2267V24.8067L18.7755 31.5167L7.34694 38.2267Z" fill="url(#paint14_linear)"/>
<path d="M31.0204 38.2267V24.8067L42.449 31.5167L31.0204 38.2267Z" fill="url(#paint15_linear)"/>
<path d="M42.8571 30.9067V17.4867L54.2857 24.1967L42.8571 30.9067Z" fill="url(#paint16_linear)"/>
<path d="M7.34694 23.5867V10.1667L18.7755 16.8767L7.34694 23.5867Z" fill="url(#paint17_linear)"/>
<path d="M19.1837 30.9067V17.4867L30.6122 24.1967L19.1837 30.9067Z" fill="url(#paint18_linear)"/>
<path d="M18.7755 45.5467V32.1267L7.34694 38.8367L18.7755 45.5467Z" fill="url(#paint19_linear)"/>
<path d="M54.2857 52.8667V39.4467L42.8571 46.1567L54.2857 52.8667Z" fill="url(#paint20_linear)"/>
<path d="M30.6122 38.2267V24.8067L19.1837 31.5167L30.6122 38.2267Z" fill="url(#paint21_linear)"/>
<path d="M42.449 30.9067V17.4867L31.0204 24.1967L42.449 30.9067Z" fill="url(#paint22_linear)"/>
<path d="M54.2857 23.5867V10.1667L42.8571 16.8767L54.2857 23.5867Z" fill="url(#paint23_linear)"/>
<path d="M54.2857 38.2267V24.8067L42.8571 31.5167L54.2857 38.2267Z" fill="url(#paint24_linear)"/>
<path d="M18.7755 30.9067V17.4867L7.34694 24.1967L18.7755 30.9067Z" fill="url(#paint25_linear)"/>
<path fill-rule="evenodd" clip-rule="evenodd" d="M61.2245 0H0V61H61.2245V0ZM59.1837 2.03333H2.04082V58.9667H59.1837V2.03333Z" fill="url(#paint26_linear)"/>
<defs>
<linearGradient id="paint0_linear" x1="121.207" y1="5.24595" x2="202.58" y2="60.2194" gradientUnits="userSpaceOnUse">
<stop stop-color="#37ECBA"/>
<stop offset="1" stop-color="#72AFD3"/>
</linearGradient>
<linearGradient id="paint1_linear" x1="121.207" y1="5.24595" x2="202.58" y2="60.2194" gradientUnits="userSpaceOnUse">
<stop stop-color="#37ECBA"/>
<stop offset="1" stop-color="#72AFD3"/>
</linearGradient>
<linearGradient id="paint2_linear" x1="121.207" y1="5.24595" x2="202.58" y2="60.2194" gradientUnits="userSpaceOnUse">
<stop stop-color="#37ECBA"/>
<stop offset="1" stop-color="#72AFD3"/>
</linearGradient>
<linearGradient id="paint3_linear" x1="121.207" y1="5.24595" x2="202.58" y2="60.2194" gradientUnits="userSpaceOnUse">
<stop stop-color="#37ECBA"/>
<stop offset="1" stop-color="#72AFD3"/>
</linearGradient>
<linearGradient id="paint4_linear" x1="121.207" y1="5.24595" x2="202.58" y2="60.2194" gradientUnits="userSpaceOnUse">
<stop stop-color="#37ECBA"/>
<stop offset="1" stop-color="#72AFD3"/>
</linearGradient>
<linearGradient id="paint5_linear" x1="121.207" y1="5.24595" x2="202.58" y2="60.2194" gradientUnits="userSpaceOnUse">
<stop stop-color="#37ECBA"/>
<stop offset="1" stop-color="#72AFD3"/>
</linearGradient>
<linearGradient id="paint6_linear" x1="121.207" y1="5.24595" x2="202.58" y2="60.2194" gradientUnits="userSpaceOnUse">
<stop stop-color="#37ECBA"/>
<stop offset="1" stop-color="#72AFD3"/>
</linearGradient>
<linearGradient id="paint7_linear" x1="121.207" y1="5.24595" x2="202.58" y2="60.2194" gradientUnits="userSpaceOnUse">
<stop stop-color="#37ECBA"/>
<stop offset="1" stop-color="#72AFD3"/>
</linearGradient>
<linearGradient id="paint8_linear" x1="121.207" y1="5.24595" x2="202.58" y2="60.2194" gradientUnits="userSpaceOnUse">
<stop stop-color="#37ECBA"/>
<stop offset="1" stop-color="#72AFD3"/>
</linearGradient>
<linearGradient id="paint9_linear" x1="121.207" y1="5.24595" x2="202.58" y2="60.2194" gradientUnits="userSpaceOnUse">
<stop stop-color="#37ECBA"/>
<stop offset="1" stop-color="#72AFD3"/>
</linearGradient>
<linearGradient id="paint10_linear" x1="121.207" y1="5.24595" x2="202.58" y2="60.2194" gradientUnits="userSpaceOnUse">
<stop stop-color="#37ECBA"/>
<stop offset="1" stop-color="#72AFD3"/>
</linearGradient>
<linearGradient id="paint11_linear" x1="121.207" y1="5.24595" x2="202.58" y2="60.2194" gradientUnits="userSpaceOnUse">
<stop stop-color="#37ECBA"/>
<stop offset="1" stop-color="#72AFD3"/>
</linearGradient>
<linearGradient id="paint12_linear" x1="21.8279" y1="-11.59" x2="78.7458" y2="-0.0543533" gradientUnits="userSpaceOnUse">
<stop stop-color="#37ECBA"/>
<stop offset="1" stop-color="#72AFD3"/>
</linearGradient>
<linearGradient id="paint13_linear" x1="21.8279" y1="-11.59" x2="78.7458" y2="-0.0543533" gradientUnits="userSpaceOnUse">
<stop stop-color="#37ECBA"/>
<stop offset="1" stop-color="#72AFD3"/>
</linearGradient>
<linearGradient id="paint14_linear" x1="21.8279" y1="-11.59" x2="78.7458" y2="-0.0543533" gradientUnits="userSpaceOnUse">
<stop stop-color="#37ECBA"/>
<stop offset="1" stop-color="#72AFD3"/>
</linearGradient>
<linearGradient id="paint15_linear" x1="21.8279" y1="-11.59" x2="78.7458" y2="-0.0543533" gradientUnits="userSpaceOnUse">
<stop stop-color="#37ECBA"/>
<stop offset="1" stop-color="#72AFD3"/>
</linearGradient>
<linearGradient id="paint16_linear" x1="21.8279" y1="-11.59" x2="78.7458" y2="-0.0543533" gradientUnits="userSpaceOnUse">
<stop stop-color="#37ECBA"/>
<stop offset="1" stop-color="#72AFD3"/>
</linearGradient>
<linearGradient id="paint17_linear" x1="21.8279" y1="-11.59" x2="78.7458" y2="-0.0543533" gradientUnits="userSpaceOnUse">
<stop stop-color="#37ECBA"/>
<stop offset="1" stop-color="#72AFD3"/>
</linearGradient>
<linearGradient id="paint18_linear" x1="21.8279" y1="-11.59" x2="78.7458" y2="-0.0543533" gradientUnits="userSpaceOnUse">
<stop stop-color="#37ECBA"/>
<stop offset="1" stop-color="#72AFD3"/>
</linearGradient>
<linearGradient id="paint19_linear" x1="21.8279" y1="-11.59" x2="78.7458" y2="-0.0543533" gradientUnits="userSpaceOnUse">
<stop stop-color="#37ECBA"/>
<stop offset="1" stop-color="#72AFD3"/>
</linearGradient>
<linearGradient id="paint20_linear" x1="21.8279" y1="-11.59" x2="78.7458" y2="-0.0543533" gradientUnits="userSpaceOnUse">
<stop stop-color="#37ECBA"/>
<stop offset="1" stop-color="#72AFD3"/>
</linearGradient>
<linearGradient id="paint21_linear" x1="21.8279" y1="-11.59" x2="78.7458" y2="-0.0543533" gradientUnits="userSpaceOnUse">
<stop stop-color="#37ECBA"/>
<stop offset="1" stop-color="#72AFD3"/>
</linearGradient>
<linearGradient id="paint22_linear" x1="21.8279" y1="-11.59" x2="78.7458" y2="-0.0543533" gradientUnits="userSpaceOnUse">
<stop stop-color="#37ECBA"/>
<stop offset="1" stop-color="#72AFD3"/>
</linearGradient>
<linearGradient id="paint23_linear" x1="21.8279" y1="-11.59" x2="78.7458" y2="-0.0543533" gradientUnits="userSpaceOnUse">
<stop stop-color="#37ECBA"/>
<stop offset="1" stop-color="#72AFD3"/>
</linearGradient>
<linearGradient id="paint24_linear" x1="21.8279" y1="-11.59" x2="78.7458" y2="-0.0543533" gradientUnits="userSpaceOnUse">
<stop stop-color="#37ECBA"/>
<stop offset="1" stop-color="#72AFD3"/>
</linearGradient>
<linearGradient id="paint25_linear" x1="21.8279" y1="-11.59" x2="78.7458" y2="-0.0543533" gradientUnits="userSpaceOnUse">
<stop stop-color="#37ECBA"/>
<stop offset="1" stop-color="#72AFD3"/>
</linearGradient>
<linearGradient id="paint26_linear" x1="21.8279" y1="-11.59" x2="78.7458" y2="-0.0543533" gradientUnits="userSpaceOnUse">
<stop stop-color="#37ECBA"/>
<stop offset="1" stop-color="#72AFD3"/>
</linearGradient>
</defs>
</svg>
