<svg width="425" height="275" viewBox="0 0 425 275" fill="none" xmlns="http://www.w3.org/2000/svg">
<path d="M141.323 271.65C81.6092 283.363 22.2269 261.532 -1.61928e-05 249.584L0 0C7.29838 3.87044 31.5489 54.2667 60.2117 61.1325C96.0401 69.7148 110.969 13.6774 146.797 29.3274C182.625 44.9775 200.042 82.3357 212.482 90.9179C224.923 99.5001 262.244 93.4421 293.097 90.9179C323.949 88.3937 342.858 73.2485 362.763 81.8308C382.668 90.413 349.327 124.237 346.342 143.421C343.356 162.605 376.199 168.158 398.094 184.313C419.989 200.468 435.714 213.089 416.008 235.302C393.615 260.544 352.811 250.447 288.618 240.855C224.425 231.263 215.966 257.01 141.323 271.65Z" fill="white"/>
</svg>
