<svg width="54" height="54" viewBox="0 0 54 54" fill="none" xmlns="http://www.w3.org/2000/svg">
<rect width="54" height="54" fill="url(#paint0_linear)"/>
<path fill-rule="evenodd" clip-rule="evenodd" d="M38.8609 30.0919L37.0918 31.861L17.9999 12.7691L19.769 11L38.8609 30.0919Z" fill="white"/>
<path fill-rule="evenodd" clip-rule="evenodd" d="M29 20V22H27V20H29Z" fill="white"/>
<path fill-rule="evenodd" clip-rule="evenodd" d="M37.0919 11L38.861 12.7691L19.7691 31.861L18 30.0919L37.0919 11Z" fill="white"/>
<path d="M12.36 40.38C13.0267 40.7333 13.36 41.2867 13.36 42.04C13.36 42.6667 13.1233 43.1733 12.65 43.56C12.1767 43.9467 11.5667 44.14 10.82 44.14C9.52 44.14 8.65 43.59 8.21 42.49L9.4 41.82C9.61333 42.5 10.0867 42.84 10.82 42.84C11.2 42.84 11.49 42.76 11.69 42.6C11.89 42.44 11.99 42.2233 11.99 41.95C11.99 41.6767 11.89 41.46 11.69 41.3C11.4967 41.14 11.2167 41.06 10.85 41.06H9.98V39.83H10.64C10.9867 39.83 11.2567 39.7567 11.45 39.61C11.6433 39.4567 11.74 39.25 11.74 38.99C11.74 38.73 11.6567 38.5267 11.49 38.38C11.3233 38.2267 11.0767 38.15 10.75 38.15C10.15 38.15 9.73 38.4433 9.49 39.03L8.32 38.35C8.79333 37.3567 9.60333 36.86 10.75 36.86C11.4433 36.86 12.01 37.0467 12.45 37.42C12.89 37.7933 13.11 38.2867 13.11 38.9C13.11 39.5267 12.86 40.02 12.36 40.38ZM17.9955 39H19.2855V44H17.9955V43.41C17.6088 43.8967 17.0655 44.14 16.3655 44.14C15.6988 44.14 15.1255 43.8867 14.6455 43.38C14.1721 42.8667 13.9355 42.24 13.9355 41.5C13.9355 40.76 14.1721 40.1367 14.6455 39.63C15.1255 39.1167 15.6988 38.86 16.3655 38.86C17.0655 38.86 17.6088 39.1033 17.9955 39.59V39ZM15.6155 42.52C15.8755 42.78 16.2055 42.91 16.6055 42.91C17.0055 42.91 17.3355 42.78 17.5955 42.52C17.8621 42.2533 17.9955 41.9133 17.9955 41.5C17.9955 41.0867 17.8621 40.75 17.5955 40.49C17.3355 40.2233 17.0055 40.09 16.6055 40.09C16.2055 40.09 15.8755 40.2233 15.6155 40.49C15.3555 40.75 15.2255 41.0867 15.2255 41.5C15.2255 41.9133 15.3555 42.2533 15.6155 42.52ZM25.0652 44H23.5652L21.7452 41.73V44H20.4552V39H21.7452V41.2L23.4652 39H25.0052L22.9952 41.47L25.0652 44ZM28.6191 38.86C29.2925 38.86 29.8658 39.1167 30.3391 39.63C30.8191 40.1367 31.0591 40.76 31.0591 41.5C31.0591 42.24 30.8191 42.8667 30.3391 43.38C29.8658 43.8867 29.2925 44.14 28.6191 44.14C27.9191 44.14 27.3791 43.8967 26.9991 43.41V46H25.7091V39H26.9991V39.59C27.3791 39.1033 27.9191 38.86 28.6191 38.86ZM27.3891 42.52C27.6491 42.78 27.9791 42.91 28.3791 42.91C28.7791 42.91 29.1091 42.78 29.3691 42.52C29.6358 42.2533 29.7691 41.9133 29.7691 41.5C29.7691 41.0867 29.6358 40.75 29.3691 40.49C29.1091 40.2233 28.7791 40.09 28.3791 40.09C27.9791 40.09 27.6491 40.2233 27.3891 40.49C27.1291 40.75 26.9991 41.0867 26.9991 41.5C26.9991 41.9133 27.1291 42.2533 27.3891 42.52ZM34.2289 40.6C34.7956 40.6 35.2522 40.7567 35.5989 41.07C35.9456 41.3767 36.1189 41.7867 36.1189 42.3C36.1189 42.8133 35.9456 43.2267 35.5989 43.54C35.2522 43.8467 34.7956 44 34.2289 44H31.9689V39H33.2589V40.6H34.2289ZM36.6689 39H37.9589V44H36.6689V39ZM34.2389 42.86C34.4189 42.86 34.5656 42.81 34.6789 42.71C34.7989 42.6033 34.8589 42.4667 34.8589 42.3C34.8589 42.1333 34.7989 41.9967 34.6789 41.89C34.5656 41.7833 34.4189 41.73 34.2389 41.73H33.2589V42.86H34.2389ZM43.0769 39V40.24H41.5169V44H40.2269V40.24H38.6469V39H43.0769ZM46.0258 40.6C46.5924 40.6 47.0491 40.7567 47.3958 41.07C47.7424 41.3767 47.9158 41.7867 47.9158 42.3C47.9158 42.8133 47.7424 43.2267 47.3958 43.54C47.0491 43.8467 46.5924 44 46.0258 44H43.7658V39H45.0558V40.6H46.0258ZM46.0358 42.86C46.2158 42.86 46.3624 42.81 46.4758 42.71C46.5958 42.6033 46.6558 42.4667 46.6558 42.3C46.6558 42.1333 46.5958 41.9967 46.4758 41.89C46.3624 41.7833 46.2158 41.73 46.0358 41.73H45.0558V42.86H46.0358Z" fill="white"/>
<defs>
<linearGradient id="paint0_linear" x1="19.2522" y1="-10.26" x2="69.4683" y2="-0.119938" gradientUnits="userSpaceOnUse">
<stop stop-color="#37ECBA"/>
<stop offset="1" stop-color="#72AFD3"/>
</linearGradient>
</defs>
</svg>
