<svg width="676" height="308" viewBox="0 0 676 308" fill="none" xmlns="http://www.w3.org/2000/svg">
<path d="M446.508 304.26C540.498 317.141 641.015 293.663 676 280.523V0C664.512 4.25668 619.293 65.1829 574.177 72.7339C517.783 82.1726 494.286 20.5431 437.892 37.7549C381.498 54.9667 354.084 96.0529 334.503 105.492C314.922 114.93 256.178 108.268 207.616 105.492C159.055 102.715 129.291 86.0589 97.9612 95.4976C66.6312 104.936 119.109 142.136 123.808 163.234C128.508 184.333 76.8135 190.44 42.3505 208.207C7.88751 225.974 -16.8633 239.855 14.1534 264.284C49.3997 292.045 113.626 280.941 214.666 270.391C315.705 259.842 329.02 288.158 446.508 304.26Z" fill="url(#paint0_linear)"/>
<defs>
<linearGradient id="paint0_linear" x1="434.991" y1="-58.52" x2="-111.86" y2="183.841" gradientUnits="userSpaceOnUse">
<stop stop-color="#37ECBA"/>
<stop offset="1" stop-color="#72AFD3"/>
</linearGradient>
</defs>
</svg>
