<svg width="575" height="600" viewBox="0 0 575 600" fill="none" xmlns="http://www.w3.org/2000/svg">
<path d="M66.6189 37.0761C94.462 43.5315 175.869 52.4701 225.984 53.4633C285.191 54.6366 331.225 53.4633 392.364 43.5315C422.037 38.7114 488.585 19.6959 498.608 15.2268C636.753 -46.3713 547.871 96.9762 535.191 124.97C506.626 188.035 527.173 526.202 535.191 545.569C543.21 564.935 522.161 589.267 478.562 576.356C434.962 563.445 384.346 569.404 315.689 576.356C247.032 583.308 236.508 584.798 181.382 576.356C126.255 567.915 74.6373 612.11 40.5593 596.716C6.48123 581.322 24.5226 525.706 27.0283 499.387C29.534 473.069 44.5684 445.261 53.5891 363.822C62.6097 282.384 12.495 149.302 1.46976 97.6582C-9.55548 46.0144 44.3425 31.9112 66.6189 37.0761Z" fill="url(#paint0_linear)"/>
<defs>
<linearGradient id="paint0_linear" x1="205" y1="-114" x2="741.424" y2="-10.1941" gradientUnits="userSpaceOnUse">
<stop stop-color="#37ECBA"/>
<stop offset="1" stop-color="#72AFD3"/>
</linearGradient>
</defs>
</svg>
